<?xml version="1.0" standalone="no"?>
<!DOCTYPE svg PUBLIC "-//W3C//DTD SVG 20010904//EN"
 "http://www.w3.org/TR/2001/REC-SVG-20010904/DTD/svg10.dtd">
<svg version="1.0" xmlns="http://www.w3.org/2000/svg"
 width="833.000000pt" height="833.000000pt" viewBox="0 0 833.000000 833.000000"
 preserveAspectRatio="xMidYMid meet">
<metadata>
Created by potrace 1.15, written by Peter Selinger 2001-2017
</metadata>
<g transform="translate(0.000000,833.000000) scale(0.100000,-0.100000)"
fill="#000000" stroke="none">
<path d="M5299 7405 c-271 -39 -503 -132 -759 -303 -307 -205 -687 -546 -880
-788 -75 -93 -174 -243 -167 -250 3 -3 110 15 239 40 539 105 747 136 984 143
515 16 913 -104 1152 -348 70 -70 176 -211 244 -324 177 -290 267 -577 288
-920 19 -320 -42 -954 -145 -1499 -13 -70 -14 -99 -1 -85 12 12 192 341 244
444 198 397 370 975 437 1475 23 166 31 602 16 797 -33 419 -111 724 -222 873
-18 25 -51 72 -73 105 -61 94 -145 192 -249 291 -192 184 -428 308 -665 349
-101 18 -322 18 -443 0z"/>
<path d="M4221 7333 c-72 -14 -694 -172 -861 -219 -592 -167 -821 -263 -1167
-493 -234 -155 -395 -308 -576 -548 -274 -364 -350 -532 -401 -883 -79 -544
-3 -947 264 -1390 131 -219 209 -315 343 -423 297 -240 732 -451 1340 -650 42
-14 77 -22 77 -17 0 5 -32 44 -71 87 -77 85 -245 304 -302 396 -112 176 -284
621 -352 913 -81 341 -91 596 -34 879 73 360 291 786 545 1065 33 36 101 120
153 188 206 271 526 602 871 905 192 168 224 199 203 196 -4 -1 -19 -4 -32 -6z"/>
<path d="M6110 4010 c-204 -324 -442 -623 -720 -901 -474 -474 -854 -679
-1386 -744 -267 -33 -759 -36 -1020 -5 -424 50 -795 174 -1069 358 -100 67
-228 181 -266 236 -13 20 -27 36 -32 36 -20 0 112 -213 226 -365 233 -309 592
-655 927 -895 447 -320 880 -513 1291 -576 125 -19 364 -21 474 -4 443 68 840
410 1114 959 173 346 376 1003 455 1472 28 166 49 374 44 439 l-3 45 -35 -55z"/>
</g>
</svg>
